<?xml version="1.0" encoding="UTF-8"?>
<svg id="Layer_2" data-name="Layer 2" xmlns="http://www.w3.org/2000/svg" xmlns:xlink="http://www.w3.org/1999/xlink" viewBox="0 0 76 76">
  <defs>
    <style>
      .cls-1 {
        fill: none;
      }

      .cls-2 {
        clip-path: url(#clippath-1);
      }

      .cls-3 {
        fill: #f5f5f7;
      }

      .cls-4 {
        clip-path: url(#clippath);
      }
    </style>
    <clipPath id="clippath">
      <path id="boat-negative" class="cls-1" d="M0,0v76h76V0H0ZM71.68,43.13c-.24,2.02-.67,4.02-1.28,5.96l-.29.95.14.03-.48,1.04-.06.19h-.03s-.81,1.76-.81,1.76c-5.49,12.01-17.56,19.76-30.76,19.76s-25.22-7.72-30.73-19.7h-.03s-.28-.68-.28-.68l-2.69-6,.77.35-1.15-3.88,5.44,2.67c5.31,2.61,9.99,3.95,13.91,3.98,6.89.07,12.35-2.33,18.12-4.85,5.98-2.62,12.16-5.32,20.1-5.32,2.1,0,4.76.27,7.9.8l2.5.42-.3,2.52Z"/>
    </clipPath>
    <clipPath id="clippath-1">
      <path id="wave-negative" class="cls-1" d="M0,74.86V0h76v54.72l-9.93,5.98c-5.44,3.28-11.54,4.88-17.64,4.62-1.39-.07-2.86-.37-4.41-.68l-.39-.08c-.85-.18-1.7-.37-2.59-.57-3.08-.68-6.26-1.39-9.42-1.75-1.55-.19-3.2-.23-4.9-.13-6.53.33-15.86,1.45-21.54,7.37l-5.17,5.39ZM71.25,66.77c-3.7,4.37-8.87,7.57-14.66,9.23h19.42v-14.85l-4.75,5.62ZM32.99,74.92c-1.66-.35-3.38-.7-4.86-.82-3.87-.18-7.65-.31-11.3.05-2.82.27-5.04.83-6.99,1.77l-.17.08h28.4c-.66-.14-1.32-.28-1.97-.42-.86-.19-1.74-.38-2.6-.55l-.51-.11Z"/>
    </clipPath>
  </defs>
  <g id="logo">
    <g>
      <g id="letters">
        <g class="cls-4">
          <g id="letters-2" data-name="letters">
            <path id="d" class="cls-3" d="M41.71,37.64l-2.14-14.4c-.4-2.66-1.67-4.98-3.49-6.7-.99.72-1.81,1.66-2.37,2.73-.2.46-.42.94-.42.94l-.04-.02s-.02.04-.02.04l-.85-.58c-1.68-.99-3.74-1.33-5.7-.94,1.89-.93,3.95-1.08,5.97-.63.86-.84,1.85-1.51,2.93-1.97-2.45-2.06-5.73-3.1-9.14-2.59l-14.86,2.2,5.52,37.25,14.86-2.2c6.31-.94,10.67-6.81,9.73-13.12ZM28.71,44.24l-5.75.85-3.49-23.54,5.75-.85c3.77-.56,7.28,2.04,7.84,5.81l1.47,9.89c.56,3.77-2.04,7.28-5.81,7.84Z"/>
            <path id="b" class="cls-3" d="M56.54,28.56l-.81-.12c3.54.51,7.02-3.37,7.53-6.9.36-2.47-.27-5.2-1.6-7.4-1.33-2.2-3.37-3.88-5.83-4.24l-16.56-2.39-5.37,37.28,19.9,2.87c4.55.66,7.07-3.73,7.69-8,.2-1.4.54-3.77.54-3.77.51-3.54-1.94-6.82-5.48-7.33ZM45.14,15.36l7.03,1.01c2.18.31,3.69,2.34,3.38,4.51-.16,1.09-.74,2.01-1.56,2.62s-1.87.91-2.96.75l-7.03-1.01,1.14-7.89ZM53.22,39.26c-.91.68-2.08,1.01-3.3.84l-8.18-1.18,1.27-8.8,8.18,1.18c2.43.35,4.12,2.61,3.77,5.04-.18,1.22-.83,2.25-1.74,2.93Z"/>
          </g>
        </g>
      </g>
      <g id="boat">
        <g class="cls-2">
          <path id="boat-2" data-name="boat" class="cls-3" d="M66.46,51.96c-4.91,10.74-15.75,18.21-28.34,18.21s-23.57-7.56-28.43-18.42c.03.01.06.03.09.04,4.33,1.97,8.97,3.74,13.82,3.87,0,0,2.4.02,2.4.02,11.1-.02,21.72-4.34,32.77-4.48,1.13,0,2.27-.02,3.4.04,1.1.09,2.18.27,3.29.5.34.07.67.14,1.01.21ZM61.58,42.05c-14.83,0-23.41,10.31-38.25,10.18-5.15-.05-10.54-2.04-15.05-4.26.31,1.05.68,2.08,1.1,3.08,3.13,1.24,6.32,2.35,9.6,2.92,2.21.44,4.7.37,6.95.23,10.35-.62,19.94-4.95,30.23-6.13,1.92-.2,4.23-.4,6.15-.4,1.86.05,3.7.31,5.55.62.55-1.77.95-3.6,1.18-5.49-2.66-.45-5.29-.76-7.46-.76Z"/>
        </g>
      </g>
      <g id="wave">
        <path class="cls-3" d="M8.09,72.27c5.49-5.52,15.61-6.47,23.05-6.02,6.49.65,12.54,3.17,18.96,3.13,6.37-.09,12.38-1.81,18.06-5.22-3.49,4.12-8.49,6.94-13.76,8.22-7.95,2.27-16.09-.73-23.82-2.04-3.71-.54-7.55-.48-11.3-.41-3.86.14-7.61.62-11.2,2.34h0Z"/>
      </g>
      <g id="bird-1">
        <g>
          <path class="cls-3" d="M22.7,26.53c1.53-.52,3.38-.28,4.89.55,0,0-.67,1.07-.67,1.07-1.1-1.05-2.56-1.72-4.22-1.62h0Z"/>
          <path class="cls-3" d="M30.51,25.47c-1.63.35-2.85,1.38-3.63,2.69,0,0-.93-.86-.93-.86,1.23-1.2,2.96-1.93,4.57-1.83h0Z"/>
        </g>
      </g>
      <g id="bird-3">
        <g>
          <path class="cls-3" d="M18.74,6.04c2.96-1.27,6.7-1.07,9.83.36,0,0-1.18,2.24-1.18,2.24-2.35-1.93-5.35-3.04-8.65-2.6h0Z"/>
          <path class="cls-3" d="M34.16,2.75c-2.75.82-5,2.67-6.28,4.92l-.56.98-1.99-1.57c2.28-2.58,5.61-4.29,8.83-4.34h0Z"/>
        </g>
      </g>
    </g>
  </g>
</svg>